#!OML:ASF \\sashay\E\basketball\basketball\Project 1\Capture day 1\Session 1\Subject.ASF
:FULLY-SPECIFIED
:DEGREES
280
root -31.5857 12.9727 10.4458 2.56552 -28.7189 -5.03362
lowerback 40.7315 1.77631 -1.18616
upperback 12.6154 1.34975 2.21204
thorax -5.61395 0.290376 2.46187
lowerneck 5.36678 -11.1281 -17.6198
upperneck -24.9483 -11.5876 38.7319
head -3.75015 -8.22086 17.6102
rclavicle -2.48481e-014 3.63776e-014
rhumerus -5.92269 -26.9756 -86.7015
rradius 51.4558
rwrist -30.8719
rhand -33.9996 49.1019
rfingers 7.12502
rthumb -7.17914 19.2437
lclavicle -2.48481e-014 3.63776e-014
lhumerus -30.7105 26.6576 57.9369
lradius 47.3613
lwrist 46.9662
lhand -15.704 18.5588
lfingers 7.12502
lthumb 10.4857 48.2772
rfemur -52.2707 -20.7286 20.9675
rtibia 80.1765
rfoot -23.3625 -8.03082
rtoes -29.7624
lfemur -59.6273 30.5789 -13.1415
ltibia 78.4197
lfoot -13.1561 -11.0836
ltoes -18.8965
281
root -31.6013 12.931 10.4731 2.4786 -28.9273 -5.21039
lowerback 41.043 1.84529 -1.16503
upperback 12.6031 1.42307 2.14735
thorax -5.72058 0.323841 2.35215
lowerneck 5.77536 -11.1281 -17.7022
upperneck -25.3936 -11.5274 39.1277
head -3.92051 -8.28181 17.9422
rclavicle 1.8487e-014 1.43125e-014
rhumerus -5.91626 -26.9779 -86.8753
rradius 51.8125
rwrist -31.094
rhand -34.395 47.7766
rfingers 7.12502
rthumb -7.56086 17.9317
lclavicle 1.8487e-014 1.43125e-014
lhumerus -30.6022 26.7651 57.9206
lradius 47.446
lwrist 46.8996
lhand -16.1364 18.7337
lfingers 7.12502
lthumb 10.0685 48.4728
rfemur -52.2079 -20.0161 21.0074
rtibia 80.5487
rfoot -23.2743 -9.19052
rtoes -31.3975
lfemur -59.5625 30.9085 -12.7902
ltibia 78.8672
lfoot -13.4429 -11.1528
ltoes -18.776
282
root -31.6168 12.8898 10.4975 2.30682 -29.1206 -5.26071
lowerback 41.3251 1.9384 -1.48747
upperback 12.6303 1.41171 2.2956
thorax -5.78506 0.300179 2.67885
lowerneck 5.46032 -11.0381 -17.8407
upperneck -25.283 -11.4228 38.9865
head -3.86469 -8.17477 17.8705
rclavicle 4.17448e-015 1.96797e-014
rhumerus -5.77276 -26.5383 -86.7382
rradius 51.3739
rwrist -30.3325
rhand -34.2719 47.0161
rfingers 7.12502
rthumb -7.44202 17.167
lclavicle 4.17448e-015 1.96797e-014
lhumerus -30.6802 28.0144 57.9375
lradius 47.2075
lwrist 46.1283
lhand -15.4297 18.49
lfingers 7.12502
lthumb 10.7503 48.1949
rfemur -51.6932 -19.3777 20.7893
rtibia 80.6304
rfoot -23.3965 -9.8757
rtoes -31.521
lfemur -59.4405 31.1607 -12.5009
ltibia 79.1693
lfoot -13.4891 -11.2823
ltoes -18.0432
283
root -31.6235 13.0198 10.4877 2.10525 -29.3431 -5.25609
lowerback 41.7264 2.10067 -1.27981
upperback 12.5225 1.64939 1.97957
thorax -6.01533 0.429171 2.13928
lowerneck 5.41681 -11.2424 -17.0364
upperneck -25.1905 -11.6118 38.9489
head -3.8517 -8.32874 17.6283
rclavicle 1.63003e-014 -1.49089e-014
rhumerus -5.97957 -27.3291 -86.9754
rradius 51.0537
rwrist -29.9304
rhand -34.0622 46.5185
rfingers 7.12502
rthumb -7.23965 16.6623
lclavicle 1.63003e-014 -1.49089e-014
lhumerus -30.0322 27.7294 57.7793
lradius 46.9706
lwrist 45.848
lhand -14.5136 18.0996
lfingers 7.12502
lthumb 11.6339 47.7566
rfemur -51.0127 -20.5184 21.0641
rtibia 79.7323
rfoot -23.6234 -8.20578
rtoes -28.5144
lfemur -58.1064 31.2428 -12.2767
ltibia 78.166
lfoot -13.3563 -11.2896
ltoes -16.9276
284
root -31.642 12.9959 10.5073 1.78711 -29.612 -5.07301
lowerback 42.0744 2.33827 -1.64431
upperback 12.5547 1.77652 1.98963
thorax -6.09375 0.475849 2.28425
lowerneck 5.53685 -11.2325 -17.3751
upperneck -25.5943 -11.5448 39.4023
head -3.92105 -8.3475 18.0018
rclavicle -2.04748e-014 2.72335e-014
rhumerus -5.74882 -27.1643 -86.9712
rradius 50.7719
rwrist -29.9543
rhand -34.2829 45.7997
rfingers 7.12502
rthumb -7.4526 15.9509
lclavicle -2.04748e-014 2.72335e-014
lhumerus -29.7882 27.9234 57.9423
lradius 46.9685
lwrist 45.7409
lhand -13.2191 17.6442
lfingers 7.12502
lthumb 12.882 47.2266
rfemur -50.9198 -20.0376 20.7444
rtibia 79.645
rfoot -23.4687 -7.77112
rtoes -25.7944
lfemur -57.5949 31.3502 -12.1056
ltibia 77.8815
lfoot -13.1481 -11.1605
ltoes -16.7866
